# xmcd
#
# Track frame offsets:
#	182
#	11882
#	22020
#	36635
#	50357
#	59695
#	72307
#	88157
#	101170
#	114857
#	128507
#	140470
#	155320
#	168170
#
# Disc length: 2489
#
# Revision: 1
# Processed by: cddbd v1.5.1PL0 Copyright (c) Steve Scherf et al.
# Submitted via: ExactAudioCopy v0.90b4
# Normalized: r0:DSETVAR1,TDELIM( - )
#
DISCID=c109b70e
DTITLE=Various Artist - Soul Collection 2
DYEAR=1900
DGENRE=Soul
TTITLE0=Sam and Dave - Soul Man
TTITLE1=Gladys Knight and The Pips - Operator
TTITLE2=Percy Sledge - Warm and Tender Love
TTITLE3=Eddie Floyd - Knock On wood
TTITLE4=The Drifters - Saturday Night At The Movies
TTITLE5=Wilbert Harrison - Lets Stick Together
TTITLE6=Dobie Grey - Drift Away
TTITLE7=Mary Wells - My Guy
TTITLE8=Ben E King - Stand By Me
TTITLE9=George McCrae - I Can't Leave You Alone
TTITLE10=Jerry Butler - Only The Strong Survive
TTITLE11=Harold Melvin - Satisfaction Guarenteed
TTITLE12=Ike and Tina Turner - Get Back
TTITLE13=The Originals - Please Mr Postman
EXTD=
EXTT0=
EXTT1=
EXTT2=
EXTT3=
EXTT4=
EXTT5=
EXTT6=
EXTT7=
EXTT8=
EXTT9=
EXTT10=
EXTT11=
EXTT12=
EXTT13=
PLAYORDER=
